# xmcd
#
# Track frame offsets: 
#        150
#        15927
#        37694
#        60134
#        86697
#        102835
#        117169
#        139708
#        154469
#
# Disc length: 2303 seconds
#
# Revision: 0
# Processed by: cddbd v1.5.2PL0 Copyright (c) Steve Scherf et al.
# Submitted via: ExactAudioCopy v1.2
#
DISCID=5e08fd09
DTITLE=BB Factory - First World Blues
DYEAR=2018
DGENRE=Blues
TTITLE0=Call Me Baby
TTITLE1=Save Me
TTITLE2=First World Blues
TTITLE3=Howler
TTITLE4=Sweet Refrain
TTITLE5=Blues For You
TTITLE6=Like Fire
TTITLE7=Fantasy
TTITLE8=It's Over
EXTD=
EXTT0=
EXTT1=
EXTT2=
EXTT3=
EXTT4=
EXTT5=
EXTT6=
EXTT7=
EXTT8=
PLAYORDER=
